<?xml version="1.0" encoding="UTF-8"?>
<svg width="560px" height="116px" viewBox="0 0 560 116" version="1.1" xmlns="http://www.w3.org/2000/svg" xmlns:xlink="http://www.w3.org/1999/xlink">
    <!-- Generator: Sketch 58 (84663) - https://sketch.com -->
    <title>logo-vector</title>
    <desc>Created with Sketch.</desc>
    <g id="Page-1" stroke="none" stroke-width="1" fill="none" fill-rule="evenodd">
        <g id="logo-vector" transform="translate(1.000000, 1.000000)" stroke="#628287" stroke-width="2">
            <path d="M133.614,94.708 C126.929,94.708 121.611,94.708 115.349,94.708 C115.349,81.44 115.375,68.5 115.339,55.558 C115.32,48.951 115.079,42.072 106.027,42.06 C97.219,42.05 95.144,48.292 95.106,55.662 C95.042,68.32 95.199,81.436 95.199,94.427 C88.173,95.09 83.687,94.866 76.733,94.72 C76.733,80.989 76.825,67.458 76.676,53.929 C76.632,49.9 76.799,45.623 72.272,43.179 C65.633,39.595 57.635,43.627 57.007,51.457 C56.475,58.075 56.881,64.762 56.682,71.414 C56.386,81.323 51.7,88.371 42.204,91.513 C16.169,100.131 -3.495,85.984 0.522,62.83 C6.388,61.826 11.548,62.018 17.68,62.015 C18.301,70.362 20.087,77.474 30.294,75.727 C35.048,74.915 38.515,72.69 38.179,66.943 C37.921,62.52 38.087,58.071 38.117,53.635 C38.227,37.623 44.358,28.979 55.489,25.111 C68.182,20.7 78.305,24.006 86.989,34.19 C89.07,32.313 94.532,28.741 97.173,27.637 C105.229,24.269 115.015,24.717 122.11,28.602 C129.527,32.666 133.517,38.413 133.579,46.729 C133.697,62.538 133.614,78.348 133.614,94.708 Z M539.776,63.939 C533.891,65.178 528.617,65.948 523.558,67.447 C518.384,68.98 515.674,72.671 517.468,78.228 C519.152,83.442 523.406,84.177 528.12,83.244 C538.296,81.23 540.37,73.981 539.776,63.939 Z M557.83,97.111 C544.803,98.611 541.875,96.495 539.427,89.079 C531.789,94.528 523.905,98.788 514.038,96.052 C505.119,93.578 499.717,88.266 498.958,78.86 C498.142,68.761 502.422,60.738 511.376,57.654 C517.588,55.514 524.313,54.834 530.835,53.637 C534.883,52.895 539.831,52.888 539.67,47.245 C539.517,41.911 534.582,41.08 530.596,40.663 C519.115,39.462 509.202,42.625 502.59,52.77 C497.238,60.98 492.4,69.529 486.919,77.647 C474.567,95.937 452.966,102.137 432.569,93.661 C421.101,88.895 417.293,79.363 416.026,67.509 C421.902,65.738 427.796,66.881 433.54,66.788 C441.056,85.087 458.634,87.975 471.118,72.593 C477.255,65.031 481.736,56.143 487.179,47.998 C501.118,27.144 519.569,20.792 543.277,28.513 C554.035,32.017 557.65,36.725 557.714,47.876 L557.83,97.111 Z M318.548,56.843 C312.046,56.843 306.112,56.843 299.795,56.843 C298.23,47.85 294.324,41.015 284.175,40.959 C274.019,40.903 269.722,47.405 268.148,56.76 C262.007,56.76 256.104,56.76 250.227,56.76 C247.965,53.152 251.333,50.052 250.835,46.731 C239.403,42.304 231.087,47.51 230.914,59.386 C230.744,71.078 230.877,82.774 230.877,94.862 C224.941,94.862 219.671,94.862 213.807,94.862 C213.807,72.482 213.807,50.162 213.807,27.267 C219.058,27.267 224.294,27.267 229.785,27.267 C231.128,30.044 231.052,31.969 232.094,35.532 C240.491,25.601 250.012,23.652 261.728,30.104 C264.786,31.788 267.91,28.896 270.541,28.19 C292.015,21.479 315.159,27.164 318.548,56.843 Z M317.024,26.926 C324.473,26.926 330.444,26.926 336.982,26.926 C341.128,41.971 345.257,56.956 349.385,71.939 C350.049,71.973 350.713,72.007 351.377,72.041 C355.586,57.127 359.795,42.213 364.079,27.034 C370.235,27.034 376.18,27.034 383.225,27.034 C375.194,50.04 367.353,72.5 359.596,94.72 C341.011,96.213 340.972,96.226 335.252,79.775 C329.257,62.539 323.347,45.273 317.024,26.926 Z M158.881,93.931 C158.881,100.635 158.881,107.149 158.881,114.001 C152.776,114.001 147.477,114.001 141.552,114.001 C141.552,98.097 141.552,82.175 141.552,65.554 C149.569,65.673 157.37,61.679 161.979,73.085 C165.279,81.252 178.379,80.628 183.514,73.137 C185.095,70.833 186.042,68.094 187.471,65.158 C190.222,65.158 193.055,65.158 195.889,65.158 C198.692,65.158 201.494,65.158 204.936,65.158 C204.112,77.014 199.899,85.957 189.549,90.88 C180.081,95.383 169.586,92.41 158.881,93.931 Z M157.673,56.908 C151.787,56.908 147.062,56.908 141.728,56.908 C141.728,46.973 141.728,37.272 141.728,27.008 C156.982,27.008 172.463,26.01 187.742,27.341 C198.877,28.311 205.566,41.154 205.111,56.711 C199.518,56.711 193.903,56.711 187.621,56.711 C185.403,48.913 183.861,39.833 172.444,40.016 C161.348,40.195 160.081,49.088 157.673,56.908 Z M249.68,66.151 C256.051,66.151 261.731,66.151 267.847,66.151 C270.72,74.16 274.716,80.939 285.122,80.305 C294.138,79.756 297.269,73.52 299.75,66.372 C305.846,66.372 311.744,66.372 317.66,66.372 C316.519,83.11 304.906,94.223 288.003,95.194 C266.082,96.451 253.716,87.373 249.68,66.151 Z M475.924,51.717 C471.734,52.156 460.633,56.321 455.577,45.278 C452.444,38.437 440.515,40.849 436.899,48.361 C435.69,50.872 435.216,54.624 434.435,57.31 C431.242,57.716 428.517,57.39 425.229,57.618 C422.461,57.81 419.667,57.662 416.879,57.662 C417.229,38.677 427.461,27.275 444.416,26.188 C464.215,24.92 473.357,30.558 475.924,51.717 Z M407.138,57.31 C401.691,57.31 396.42,57.31 390.581,57.31 C390.581,46.896 390.581,36.603 390.581,25.72 C395.854,25.72 401.091,25.72 407.138,25.72 C407.138,35.731 407.138,46.004 407.138,57.31 Z M17.558,53.378 C11.957,53.378 6.654,53.378 0.666,53.378 C0.666,44.498 0.666,35.556 0.666,26.041 C6.963,25.217 11.542,25.953 17.805,25.217 C17.805,34.835 17.558,43.366 17.558,53.378 Z M407.428,94.911 C401.44,94.911 396.221,94.911 390.512,94.911 C390.512,85.617 390.512,76.663 390.512,67.158 C395.989,67.158 401.449,67.158 407.428,67.158 C407.428,76.222 407.428,85.178 407.428,94.911 Z" id="Stroke-1"></path>
            <path d="M17.805,0.637 C17.805,6.874 18.281,11.445 18.057,16.773 C12.411,16.997 7.496,16.884 0.255,17.134 C0.255,11.926 0.255,6.422 0.255,1.111 C5.351,0.667 14.197,0.795 17.805,0.637 Z M407.903,17.359 C401.613,17.359 396.311,17.359 390.513,17.359 C390.513,11.91 390.513,6.719 390.513,1.028 C396.047,1.028 401.934,1.028 407.673,1.028 C408.014,5.768 407.903,11.296 407.903,17.359 Z" id="Stroke-3"></path>
        </g>
    </g>
</svg>